<svg viewBox="0 0 124.4882 93.3662" width="62" height="46.50002490195858" xmlns="http://www.w3.org/2000/svg" xmlns:xlink="http://www.w3.org/1999/xlink" preserveAspectRatio="none"><defs></defs><style>.icon1q-MN-hSTM {fill:#25C998;fill-opacity:1;}.icon2q-MN-hSTM {fill:#345CFD;fill-opacity:1;}.icon3q-MN-hSTM {fill:#2391FF;fill-opacity:1;}</style><g opacity="1" transform="rotate(0 0 0)">
<svg width="124.4882" height="93.3662" x="0" y="0" version="1.1" preserveAspectRatio="none" viewBox="20.000099182128906 40 159.9998779296875 119.99995422363281">
  <g transform="matrix(1 0 0 1 0 0)" ><g><path d="M173.677 69.559c-4.944-5.443-13.721 1.579-16.734 3.83 0 0 6.162 9.562 5.409 14.063-.001 0 18.939-9.512 11.325-17.893z" data-color="1" class="icon1q-MN-hSTM"></path><path opacity=".5" d="M173.677 69.559c-4.944-5.443-13.721 1.579-16.734 3.83 0 0 6.162 9.562 5.409 14.063-.001 0 18.939-9.512 11.325-17.893z" data-color="3" class="icon2q-MN-hSTM"></path><path d="M164.633 128.004c4.618 3.101 7.933 5.352 9.943 6.752 3.615 2.7 5.424 5.277 5.424 7.726 0 2.453-1.506 5.879-4.519 10.279-3.013 4.403-6.078 6.601-9.19 6.601-1.909 0-4.821-1.349-8.737-4.051-.504-.299-1.909-1.249-4.218-2.851-2.312-1.599-4.119-2.8-5.424-3.602-9.341 7.203-19.836 10.804-31.485 10.804-15.568 0-28.699-5.5-39.395-16.505-10.696-11.003-16.044-24.106-16.044-39.313 0-8.301 1.506-16.078 4.519-23.332 3.013-7.252 7.029-13.328 12.052-18.231 5.021-4.9 10.795-8.751 17.325-11.553 6.527-2.8 13.258-4.202 20.187-4.202 14.863 0 27.769 5.352 38.717 16.055 10.946 10.705 16.421 24.259 16.421 40.664-.001 8.304-1.86 16.557-5.576 24.759zm-76.981-24.909c0 8.904 2.886 16.13 8.662 21.682 5.774 5.552 12.227 8.327 19.359 8.327 7.13 0 13.558-2.7 19.283-8.101 5.724-5.403 8.587-12.654 8.587-21.757 0-9.101-2.888-16.405-8.662-21.908-5.776-5.499-12.229-8.253-19.359-8.253-7.132 0-13.558 2.777-19.283 8.328-5.724 5.552-8.587 12.779-8.587 21.682z" data-color="3" class="icon3q-MN-hSTM"></path><path d="M173.677 69.559s.729 3.9-.743 7.952c-.879 2.419-2.543 4.891-5.615 6.62-5.343 3.006-14.944 3.761-32.084-1.929-9.039-3.001-14.952-4.957-24.104-4.501-15.065.75-18.516 20.333-6.175 25.396 12.805 5.252 22.149-2.863 37.214-1.362 16.641 1.658 26.208 8.978 22.441 26.233 0 0 7.371-5.679 12.68-22.427 4.519-14.256 1.785-30.441-3.614-35.982z" data-color="1" class="icon1q-MN-hSTM"></path><path d="M134.821 156.284s-31.369-2.947-32.656-23.298c-1.221-19.285-5.834-24.447-12.559-24.797-10.258-.533-14.053 10.021-24.851 7.568-9.581-2.177-13.297-18.909-14.232-23.606-1.972-9.896-9.888-19.718-19.991-18.428-9.956 1.272-14.613 12.335-6.065 24.549 9.728 13.899 26.103 12.605 48.311 42.555 16.843 22.714 49.916 21.404 62.043 15.457z" data-color="1" class="icon1q-MN-hSTM"></path><path d="M67.156 98.762c0 2.468-2.008 4.469-4.486 4.469-2.478 0-4.486-2-4.486-4.469 0-2.468 2.008-4.469 4.486-4.469 2.478 0 4.486 2 4.486 4.469z" data-color="1" class="icon1q-MN-hSTM"></path><path d="M139.958 48.668c0 4.787-3.896 8.668-8.702 8.668s-8.702-3.88-8.702-8.668c0-4.787 3.896-8.668 8.702-8.668s8.702 3.88 8.702 8.668z" data-color="1" class="icon1q-MN-hSTM"></path><path d="M155.959 138.417c0 2.934-2.388 5.312-5.334 5.312-2.946 0-5.334-2.378-5.334-5.312s2.388-5.312 5.334-5.312c2.946 0 5.334 2.378 5.334 5.312z" data-color="1" class="icon1q-MN-hSTM"></path></g></g>
</svg>
</g></svg>